<svg width="512" height="512" viewBox="0 0 512 512" fill="none" xmlns="http://www.w3.org/2000/svg">
    <defs>
        <linearGradient id="paint0_linear_5_2" x1="-40.5776" y1="-40.5775" x2="392.032" y2="392.032"
            gradientUnits="userSpaceOnUse">
            <stop stop-color="#76CCF8" />
            <stop offset="0.833" stop-color="#518EF8" />
            <stop offset="1" stop-color="#4981F8" />
        </linearGradient>
        <linearGradient id="paint1_linear_5_2" x1="229.715" y1="229.715" x2="417.624" y2="417.624"
            gradientUnits="userSpaceOnUse">
            <stop stop-color="#4071F7" stop-opacity="0" />
            <stop offset="1" stop-color="#30569F" />
        </linearGradient>
        <linearGradient id="paint2_linear_5_2" x1="256" y1="149.584" x2="256" y2="21.9437"
            gradientUnits="userSpaceOnUse">
            <stop stop-color="#4071F7" stop-opacity="0" />
            <stop offset="1" stop-color="#30569F" />
        </linearGradient>
        <linearGradient id="paint3_linear_5_2" x1="256" y1="259.012" x2="256" y2="182.595"
            gradientUnits="userSpaceOnUse">
            <stop stop-color="#4071F7" stop-opacity="0" />
            <stop offset="0.161" stop-color="#3D6BE4" stop-opacity="0.161" />
            <stop offset="0.524" stop-color="#3660BF" stop-opacity="0.524" />
            <stop offset="0.816" stop-color="#3259A7" stop-opacity="0.816" />
            <stop offset="1" stop-color="#30569F" />
        </linearGradient>
        <linearGradient id="paint4_linear_5_2" x1="74.9809" y1="74.9809" x2="437.019" y2="437.019"
            gradientUnits="userSpaceOnUse">
            <stop stop-color="#76CCF8" />
            <stop offset="0.833" stop-color="#518EF8" />
            <stop offset="1" stop-color="#4981F8" />
        </linearGradient>
        <linearGradient id="paint5_linear_5_2" x1="256" y1="385.104" x2="256" y2="505.578"
            gradientUnits="userSpaceOnUse">
            <stop stop-color="#4071F7" stop-opacity="0" />
            <stop offset="1" stop-color="#30569F" />
        </linearGradient>
        <linearGradient id="paint6_linear_5_2" x1="354.05" y1="354.05" x2="229.418" y2="229.418"
            gradientUnits="userSpaceOnUse">
            <stop stop-color="#4071F7" stop-opacity="0" />
            <stop offset="0.161" stop-color="#3D6BE4" stop-opacity="0.161" />
            <stop offset="0.524" stop-color="#3660BF" stop-opacity="0.524" />
            <stop offset="0.816" stop-color="#3259A7" stop-opacity="0.816" />
            <stop offset="1" stop-color="#30569F" />
        </linearGradient>
        <linearGradient id="paint7_linear_5_2" x1="375.801" y1="375.801" x2="305.142" y2="305.142"
            gradientUnits="userSpaceOnUse">
            <stop stop-color="#4071F7" stop-opacity="0" />
            <stop offset="0.161" stop-color="#3D6BE4" stop-opacity="0.161" />
            <stop offset="0.524" stop-color="#3660BF" stop-opacity="0.524" />
            <stop offset="0.816" stop-color="#3259A7" stop-opacity="0.816" />
            <stop offset="1" stop-color="#30569F" />
        </linearGradient>
        <linearGradient id="paint8_linear_5_2" x1="208.731" y1="208.731" x2="314.133" y2="314.133"
            gradientUnits="userSpaceOnUse">
            <stop stop-color="#EEF4FF" />
            <stop offset="1" stop-color="#CFE7FD" />
        </linearGradient>
        <linearGradient id="paint9_linear_5_2" x1="319.832" y1="319.832" x2="343.709" y2="343.709"
            gradientUnits="userSpaceOnUse">
            <stop stop-color="#8AAADC" stop-opacity="0" />
            <stop offset="1" stop-color="#8AAADC" />
        </linearGradient>
        <linearGradient id="paint10_linear_5_2" x1="198.095" y1="294.322" x2="216.178" y2="312.405"
            gradientUnits="userSpaceOnUse">
            <stop stop-color="#8AAADC" stop-opacity="0" />
            <stop offset="1" stop-color="#8AAADC" />
        </linearGradient>
        <linearGradient id="paint11_linear_5_2" x1="294.322" y1="198.095" x2="312.405" y2="216.177"
            gradientUnits="userSpaceOnUse">
            <stop stop-color="#8AAADC" stop-opacity="0" />
            <stop offset="1" stop-color="#8AAADC" />
        </linearGradient>
        <clipPath id="clip0_5_2">
            <rect width="512" height="512" fill="white" />
        </clipPath>
    </defs>
    <g clip-path="url(#clip0_5_2)">
        <path
            d="M256 488.753C384.546 488.753 488.753 384.546 488.753 256C488.753 127.454 384.546 23.2468 256 23.2468C127.454 23.2468 23.2468 127.454 23.2468 256C23.2468 384.546 127.454 488.753 256 488.753Z"
            fill="url(#paint0_linear_5_2)" />
        <path
            d="M256 488.753C384.546 488.753 488.753 384.546 488.753 256C488.753 127.454 384.546 23.2468 256 23.2468C127.454 23.2468 23.2468 127.454 23.2468 256C23.2468 384.546 127.454 488.753 256 488.753Z"
            fill="url(#paint1_linear_5_2)" />
        <path
            d="M256 23.2508C127.458 23.2508 23.2508 127.458 23.2508 256C23.2508 384.542 127.458 488.749 256 488.749C384.542 488.749 488.749 384.542 488.749 256C488.749 127.458 384.542 23.2508 256 23.2508ZM256 328.905C129.305 328.905 26.6039 296.267 26.6039 256C26.6039 215.733 129.305 183.095 256 183.095C382.695 183.095 485.396 215.733 485.396 256C485.396 296.267 382.695 328.905 256 328.905Z"
            fill="url(#paint2_linear_5_2)" />
        <path
            d="M256 328.91C382.692 328.91 485.396 296.267 485.396 256C485.396 215.733 382.692 183.09 256 183.09C129.308 183.09 26.6039 215.733 26.6039 256C26.6039 296.267 129.308 328.91 256 328.91Z"
            fill="url(#paint3_linear_5_2)" />
        <path
            d="M511.984 257.349C511.994 256.892 512 256.443 512 256C512 255.557 511.994 255.108 511.984 254.651C511.636 186.776 485.054 123.014 437.02 74.9799C388.985 26.9473 325.224 0.364424 257.348 0.0160627C256.892 0.00602353 256.442 0 256 0C255.558 0 255.108 0.00602353 254.652 0.0160627C186.776 0.364424 123.015 26.9473 74.9809 74.9809C26.9473 123.015 0.364424 186.776 0.0160627 254.651C0.00602353 255.108 0 255.558 0 256C0 256.442 0.00602353 256.892 0.0160627 257.349C0.364424 325.224 26.9463 388.986 74.9799 437.02C123.014 485.054 186.775 511.636 254.651 511.984C255.108 511.994 255.557 512 255.999 512C256.441 512 256.892 511.994 257.347 511.984C325.223 511.636 388.984 485.053 437.018 437.02C485.053 388.985 511.636 325.224 511.984 257.349ZM410.414 295.912C397.558 300.88 383.315 305.146 368.003 308.66C369.476 291.533 370.236 273.902 370.236 256.001C370.236 238.1 369.476 220.469 368.003 203.342C383.314 206.856 397.558 211.121 410.414 216.09C446.159 229.907 462.159 246.091 462.159 256.002C462.159 265.911 446.159 282.095 410.414 295.912ZM256 462.159C246.089 462.159 229.905 446.159 216.088 410.414C211.12 397.558 206.854 383.315 203.34 368.003C220.467 369.476 238.098 370.236 255.999 370.236C273.9 370.236 291.531 369.476 308.658 368.003C305.144 383.314 300.879 397.558 295.91 410.414C282.095 446.159 265.911 462.159 256 462.159ZM256 320.396C234.972 320.396 214.449 319.275 194.881 317.119C192.725 297.551 191.604 277.028 191.604 256C191.604 234.972 192.725 214.449 194.881 194.881C214.449 192.725 234.972 191.604 256 191.604C277.028 191.604 297.551 192.725 317.119 194.881C319.275 214.449 320.396 234.972 320.396 256C320.396 277.028 319.275 297.551 317.119 317.119C297.551 319.275 277.028 320.396 256 320.396ZM49.8407 256C49.8407 246.089 65.8412 229.905 101.586 216.088C114.442 211.12 128.685 206.854 143.997 203.34C142.524 220.467 141.764 238.098 141.764 255.999C141.764 273.9 142.524 291.531 143.997 308.658C128.686 305.144 114.442 300.879 101.586 295.91C65.8412 282.095 49.8407 265.911 49.8407 256ZM256 49.8407C265.911 49.8407 282.095 65.8412 295.912 101.586C300.88 114.442 305.146 128.685 308.66 143.997C291.533 142.524 273.902 141.764 256.001 141.764C238.1 141.764 220.469 142.524 203.342 143.997C206.856 128.686 211.121 114.442 216.09 101.586C229.905 65.8412 246.089 49.8407 256 49.8407ZM446.749 177.512C440.732 174.637 434.605 171.998 428.381 169.601C408.358 161.861 385.583 155.625 360.969 151.03C356.374 126.416 350.138 103.641 342.399 83.6176C340.001 77.3948 337.362 71.2679 334.487 65.2509C359.353 75.4819 382.189 90.6371 401.775 110.224C421.364 129.81 436.518 152.645 446.749 177.512ZM110.223 110.224C129.809 90.6371 152.645 75.4819 177.511 65.2509C174.636 71.2679 171.997 77.3948 169.6 83.6176C161.86 103.641 155.624 126.416 151.029 151.03C126.415 155.625 103.64 161.861 83.6166 169.601C77.3938 171.998 71.2668 174.637 65.2499 177.512C75.4819 152.645 90.6361 129.81 110.223 110.224ZM65.2509 334.488C71.2679 337.363 77.3948 340.002 83.6176 342.4C103.641 350.139 126.416 356.375 151.03 360.97C155.625 385.584 161.861 408.359 169.601 428.381C171.998 434.604 174.637 440.731 177.512 446.748C152.646 436.517 129.81 421.362 110.224 401.775C90.6361 382.19 75.4819 359.355 65.2509 334.488ZM334.488 446.749C337.363 440.732 340.002 434.605 342.4 428.382C350.139 408.359 356.375 385.584 360.97 360.971C385.584 356.376 408.359 350.14 428.382 342.401C434.606 340.003 440.733 337.364 446.75 334.489C436.519 359.356 421.364 382.191 401.777 401.777C382.19 421.363 359.355 436.518 334.488 446.749Z"
            fill="url(#paint4_linear_5_2)" />
        <path
            d="M10.2048 327.884C22.0772 368.707 44.0822 406.12 74.9809 437.02C123.015 485.054 186.776 511.636 254.652 511.984C255.109 511.994 255.558 512 256 512C256.442 512 256.892 511.994 257.348 511.984C325.224 511.636 388.985 485.053 437.019 437.02C467.918 406.121 489.923 368.708 501.795 327.884H10.2048ZM110.223 401.776C90.636 382.19 75.4808 359.355 65.2499 334.488C71.2669 337.363 77.3938 340.002 83.6166 342.4C103.64 350.139 126.415 356.375 151.029 360.97C155.624 385.584 161.86 408.359 169.599 428.381C171.997 434.604 174.636 440.731 177.511 446.748C152.645 436.518 129.81 421.363 110.223 401.776ZM295.912 410.414C282.095 446.159 265.911 462.159 256 462.159C246.089 462.159 229.905 446.159 216.088 410.414C211.12 397.558 206.854 383.315 203.34 368.003C220.467 369.476 238.098 370.236 255.999 370.236C273.9 370.236 291.531 369.476 308.658 368.003C305.145 383.314 300.88 397.558 295.912 410.414ZM401.777 401.776C382.191 421.363 359.355 436.518 334.489 446.749C337.364 440.732 340.003 434.605 342.4 428.382C350.14 408.359 356.376 385.584 360.971 360.971C385.585 356.376 408.36 350.14 428.383 342.4C434.606 340.003 440.733 337.364 446.75 334.489C436.518 359.355 421.364 382.19 401.777 401.776Z"
            fill="url(#paint5_linear_5_2)" />
        <path
            d="M437.019 437.019C460.438 413.601 478.741 386.437 491.407 356.886L320.792 186.271C318.133 182.098 313.863 178.868 308.308 177.73L173.03 150.023C159.327 147.216 147.216 159.327 150.023 173.03L177.73 308.308C178.868 313.862 182.098 318.133 186.271 320.792L356.886 491.408C386.437 478.741 413.601 460.438 437.019 437.019Z"
            fill="url(#paint6_linear_5_2)" />
        <path
            d="M348.248 290.973L290.973 348.248L406.125 463.401C428.106 447.435 447.435 428.106 463.401 406.125L348.248 290.973Z"
            fill="url(#paint7_linear_5_2)" />
        <path
            d="M357.893 300.617L292.03 234.754L317.178 209.607C328.158 198.627 322.518 179.844 307.306 176.727L172.028 149.02C158.325 146.213 146.214 158.324 149.021 172.027L176.728 307.305C179.845 322.517 198.628 328.157 209.607 317.177L234.755 292.03L300.618 357.893C307.947 365.222 319.828 365.222 327.156 357.893L357.894 327.155C365.221 319.826 365.221 307.945 357.893 300.617Z"
            fill="url(#paint8_linear_5_2)" />
        <path
            d="M357.893 300.617L292.03 234.754L234.754 292.03L300.617 357.893C307.946 365.222 319.827 365.222 327.155 357.893L357.893 327.155C365.221 319.826 365.221 307.945 357.893 300.617Z"
            fill="url(#paint9_linear_5_2)" />
        <path
            d="M182.106 239.38L234.757 292.031L209.609 317.179C198.626 328.152 179.842 322.52 176.73 307.3L164.731 248.732C164.389 247.062 164.467 245.334 164.957 243.702C165.447 242.07 166.334 240.585 167.539 239.38C171.562 235.357 178.084 235.357 182.106 239.38Z"
            fill="url(#paint10_linear_5_2)" />
        <path
            d="M317.179 209.609L292.031 234.757L239.38 182.106C235.357 178.084 235.357 171.561 239.38 167.538C240.585 166.334 242.07 165.447 243.702 164.957C245.334 164.467 247.061 164.389 248.731 164.731L307.299 176.73C322.52 179.842 328.152 198.626 317.179 209.609Z"
            fill="url(#paint11_linear_5_2)" />
    </g>

</svg>
    