<svg width="306" height="513" viewBox="0 0 306 513" fill="none" xmlns="http://www.w3.org/2000/svg">
    <defs>
        <linearGradient id="paint0_linear_1_3" x1="49.179" y1="290.616" x2="324.43" y2="455.455"
            gradientUnits="userSpaceOnUse">
            <stop stop-color="#FFC738" />
            <stop offset="0.429" stop-color="#FFBB23" />
            <stop offset="1" stop-color="#FFA700" />
        </linearGradient>
        <linearGradient id="paint1_linear_1_3" x1="152.83" y1="197.807" x2="152.83" y2="235.647"
            gradientUnits="userSpaceOnUse">
            <stop stop-color="#FFC738" />
            <stop offset="0.429" stop-color="#FFBB23" />
            <stop offset="1" stop-color="#FFA700" />
        </linearGradient>
        <linearGradient id="paint2_linear_1_3" x1="239.38" y1="333.814" x2="106.454" y2="109.299"
            gradientUnits="userSpaceOnUse">
            <stop stop-color="#FFA700" stop-opacity="0" />
            <stop offset="0.021" stop-color="#FEA600" stop-opacity="0.02" />
            <stop offset="0.635" stop-color="#EC8C00" stop-opacity="0.635" />
            <stop offset="1" stop-color="#E58200" />
        </linearGradient>
        <linearGradient id="paint3_linear_1_3" x1="307.112" y1="262.505" x2="242.95" y2="196.933"
            gradientUnits="userSpaceOnUse">
            <stop stop-color="#FFA700" stop-opacity="0" />
            <stop offset="0.021" stop-color="#FEA600" stop-opacity="0.02" />
            <stop offset="0.635" stop-color="#EC8C00" stop-opacity="0.635" />
            <stop offset="1" stop-color="#E58200" />
        </linearGradient>
        <linearGradient id="paint4_linear_1_3" x1="222.214" y1="432.343" x2="124.443" y2="334.572"
            gradientUnits="userSpaceOnUse">
            <stop stop-color="#FFA700" stop-opacity="0" />
            <stop offset="0.021" stop-color="#FEA600" stop-opacity="0.02" />
            <stop offset="0.635" stop-color="#EC8C00" stop-opacity="0.635" />
            <stop offset="1" stop-color="#E58200" />
        </linearGradient>
        <linearGradient id="paint5_linear_1_3" x1="140.043" y1="329.818" x2="189.453" y2="421.262"
            gradientUnits="userSpaceOnUse">
            <stop stop-color="#3B395F" />
            <stop offset="0.063" stop-color="#37355A" />
            <stop offset="0.403" stop-color="#232543" />
            <stop offset="0.723" stop-color="#171B35" />
            <stop offset="1" stop-color="#131830" />
        </linearGradient>
        <linearGradient id="paint6_linear_1_3" x1="152.83" y1="174.307" x2="152.83" y2="246.591"
            gradientUnits="userSpaceOnUse">
            <stop stop-color="#3B395F" />
            <stop offset="0.063" stop-color="#37355A" />
            <stop offset="0.403" stop-color="#232543" />
            <stop offset="0.723" stop-color="#171B35" />
            <stop offset="1" stop-color="#131830" />
        </linearGradient>
        <linearGradient id="paint7_linear_1_3" x1="152.83" y1="461.986" x2="152.83" y2="516.447"
            gradientUnits="userSpaceOnUse">
            <stop stop-color="#FFA700" stop-opacity="0" />
            <stop offset="0.021" stop-color="#FEA600" stop-opacity="0.02" />
            <stop offset="0.635" stop-color="#EC8C00" stop-opacity="0.635" />
            <stop offset="1" stop-color="#E58200" />
        </linearGradient>
    </defs>
    <path
        d="M288.82 493.559C198.742 518.149 106.914 518.149 16.84 493.559C6.887 490.839 0 481.766 0 471.445V233.93C0 223.613 6.887 214.54 16.84 211.82C106.91 187.23 198.746 187.23 288.82 211.82C298.773 214.54 305.66 223.613 305.66 233.93V471.45C305.66 481.766 298.773 490.84 288.82 493.559Z"
        fill="url(#paint0_linear_1_3)" />
    <path
        d="M284.148 210.586C282.308 210.102 280.468 209.621 278.628 209.156C277.391 208.848 276.153 208.543 274.914 208.242C273.126 207.803 271.336 207.373 269.543 206.953C266.502 206.244 263.456 205.561 260.403 204.906C259.164 204.641 257.926 204.375 256.687 204.117C254.84 203.734 252.988 203.367 251.137 203.004C249.961 202.774 248.789 202.539 247.613 202.316C245.585 201.937 243.555 201.568 241.523 201.211C240.531 201.035 239.539 200.851 238.547 200.68C235.532 200.163 232.512 199.675 229.488 199.215C229.434 199.207 229.378 199.199 229.324 199.187C226.355 198.738 223.387 198.317 220.418 197.918C219.418 197.781 218.418 197.664 217.422 197.535C215.392 197.272 213.361 197.021 211.328 196.781C210.148 196.645 208.968 196.52 207.789 196.391C205.933 196.187 204.077 195.993 202.219 195.809C200.976 195.689 199.733 195.573 198.489 195.461C196.687 195.297 194.883 195.141 193.079 195C190.018 194.755 186.956 194.539 183.891 194.352C182.641 194.273 181.391 194.195 180.145 194.129C178.285 194.027 176.425 193.945 174.57 193.863C173.39 193.813 172.207 193.758 171.031 193.715C168.988 193.641 166.949 193.59 164.911 193.539C163.914 193.516 162.918 193.48 161.921 193.465C158.892 193.409 155.862 193.38 152.832 193.379H152.828C149.797 193.379 146.766 193.41 143.738 193.465C142.742 193.485 141.742 193.515 140.746 193.539C138.707 193.589 136.672 193.641 134.633 193.715C133.453 193.758 132.27 193.812 131.09 193.863C129.23 193.945 127.371 194.027 125.516 194.129C124.27 194.195 123.02 194.273 121.773 194.352C118.707 194.54 115.644 194.756 112.582 195C110.777 195.14 108.972 195.3 107.172 195.46C105.93 195.574 104.687 195.687 103.442 195.809C101.586 195.989 99.727 196.188 97.872 196.391C96.692 196.52 95.512 196.645 94.332 196.781C92.299 197.019 90.2677 197.27 88.238 197.535C87.242 197.665 86.242 197.781 85.246 197.915C82.277 198.313 79.312 198.735 76.348 199.188L76.172 199.211C73.152 199.671 70.132 200.164 67.117 200.68C66.125 200.848 65.133 201.035 64.141 201.21C62.109 201.57 60.078 201.934 58.047 202.316C56.875 202.539 55.703 202.773 54.531 203.004C52.676 203.367 50.824 203.734 48.973 204.117C47.734 204.375 46.496 204.641 45.258 204.907C43.4655 205.292 41.6752 205.686 39.887 206.09C38.629 206.371 37.371 206.66 36.113 206.953C34.324 207.371 32.539 207.801 30.75 208.238C27.6634 208.986 24.5852 209.769 21.516 210.586C20.34 210.895 19.168 211.199 17.996 211.516C17.476 211.656 16.961 211.805 16.441 211.946C11.0571 213.523 6.44381 217.03 3.48401 221.796C102.274 251.496 203.394 251.496 302.187 221.796C299.225 217.031 294.611 213.524 289.227 211.946C288.711 211.805 288.191 211.656 287.672 211.516C286.496 211.199 285.32 210.895 284.148 210.586Z"
        fill="url(#paint1_linear_1_3)" />
    <path
        d="M288.82 211.82C206.305 189.293 122.316 187.418 39.559 206.164V209.063C39.559 215.879 43.043 221.883 48.32 225.398L303.684 480.758C304.987 477.828 305.66 474.656 305.66 471.449V233.93C305.66 223.614 298.773 214.539 288.82 211.82Z"
        fill="url(#paint2_linear_1_3)" />
    <path
        d="M305.66 233.93C305.66 223.613 298.773 214.54 288.82 211.82C268.277 206.21 247.648 201.887 226.965 198.836V209.062C226.965 215.879 230.449 221.882 235.73 225.398L305.66 295.328V233.93Z"
        fill="url(#paint3_linear_1_3)" />
    <path
        d="M279.14 414.828L182.48 318.168C174.45 309.625 162.773 304.543 149.93 305.434C129.902 306.82 113.668 323.024 112.238 343.047C111.32 355.93 116.418 367.641 124.992 375.684L134.652 385.348C137.773 390.105 139.457 395.773 139.457 401.598V418.258C139.457 422.578 141.449 426.528 144.578 429.09L222.641 507.152C236.793 505.186 250.859 502.637 264.801 499.512C264.871 490.801 268.793 482.445 275.773 477.222C285.695 469.805 292.121 457.969 292.121 444.625C292.121 432.855 287.124 422.258 279.14 414.828Z"
        fill="url(#paint4_linear_1_3)" />
    <path
        d="M193.527 346.031C193.527 322.594 173.719 303.785 149.93 305.434C129.902 306.82 113.668 323.024 112.238 343.047C111.211 357.492 117.727 370.473 128.246 378.453C135.434 383.91 139.457 392.574 139.457 401.598V418.258C139.457 425.621 145.219 431.938 152.578 432.07C160.078 432.21 166.203 426.172 166.203 418.703V401.153C166.203 392.355 170.137 383.898 177.18 378.629C187.102 371.211 193.527 359.371 193.527 346.031Z"
        fill="url(#paint5_linear_1_3)" />
    <path
        d="M246.484 228.68C235.652 228.68 226.867 219.895 226.867 209.062V113.27C226.867 72.445 193.657 39.234 152.832 39.234C112.004 39.234 78.793 72.445 78.793 113.27V209.063C78.793 219.895 70.008 228.68 59.176 228.68C48.34 228.68 39.559 219.895 39.559 209.062V113.27C39.559 50.813 90.37 0 152.832 0C215.289 0 266.102 50.813 266.102 113.27V209.063C266.102 219.895 257.32 228.68 246.484 228.68Z"
        fill="url(#paint6_linear_1_3)" />
    <path
        d="M0 406.242V471.449C0 481.766 6.887 490.839 16.844 493.559C106.914 518.149 198.746 518.149 288.82 493.559C298.773 490.839 305.66 481.766 305.66 471.449V406.242H0Z"
        fill="url(#paint7_linear_1_3)" />

</svg>
    